# xmcd CD database file
#
# Track frame offsets:
#	150
#	19800
#	44400
#	59325
#	79725
#	94350
#	118575
#	140850
#	156900
#	176625
#
# Disc length: 2573 seconds
#
# Revision: 0
# Processed by: cddbd v1.4PL0 Copyright (c) Steve Scherf et al.
# Submitted via: Feurio! 1.65 - http://www.feurio.com
#
DISCID=8c0a0b0a
DTITLE=Katmandu - A Case For The Blues
DYEAR=1983
DGENRE=Blues
TTITLE0=Dust My Broom
TTITLE1=One More Night Without You
TTITLE2=Crane's Train Boogie
TTITLE3=Boogie All the Way
TTITLE4=Zulu Gone West
TTITLE5=Blowing All My Troubles Away
TTITLE6=Strangers Blues
TTITLE7=Sweet Sixteen
TTITLE8=Who's That Knocking
TTITLE9=The Case
EXTD=ARD Castle Communications CLC 5051
EXTT0=
EXTT1=
EXTT2=
EXTT3=
EXTT4=
EXTT5=
EXTT6=
EXTT7=
EXTT8=
EXTT9=
PLAYORDER=
